<svg id="badges" xmlns="http://www.w3.org/2000/svg" xmlns:xlink="http://www.w3.org/1999/xlink" width="576.26" height="527.3" viewBox="0 0 576.26 527.3">
  <defs>
    <linearGradient id="linear-gradient" x1="0.5" x2="0.5" y2="1" gradientUnits="objectBoundingBox">
      <stop offset="0" stop-color="#ee0979"/>
      <stop offset="1" stop-color="#ff6a00"/>
    </linearGradient>
  </defs>
  <path id="Path_641" data-name="Path 641" d="M208.343,221.638c-31.662-47.926-111.957-38.373-143.6-86.279-17.272-26.188-13.409-62.337,1.481-90.014q2.121-3.919,4.5-7.675A264.882,264.882,0,0,0,29.66,87.331C7.7,122.03-5.445,164.282,2.181,204.738c4,21.371,13.549,41.17,22.976,60.683L98.707,417.608c6.324,13.1,13.029,26.535,21.635,38.231a826.583,826.583,0,0,0,72.51-108.405C214.567,308.673,232.78,258.644,208.343,221.638Z" transform="translate(-0.001 39.221)" opacity="0.85" fill="url(#linear-gradient)"/>
  <path id="Path_642" data-name="Path 642" d="M295.833,293.965c-22.015-47.906-31.8-108.548-77.353-133.858C183.556,140.7,135.062,147.86,108.4,117.834,89.131,96.055,89.771,61.54,102.2,35.107A130.538,130.538,0,0,1,115.269,13.43,286.154,286.154,0,0,0,44.04,62.907q-2.382,3.756-4.5,7.675c-14.89,27.7-18.753,63.827-1.481,90.014,31.642,47.906,111.937,38.353,143.6,86.279,24.437,37.006,6.224,87.034-15.491,125.8a826.586,826.586,0,0,1-72.51,108.405,81.91,81.91,0,0,0,23.516,22.106c28.019,16.717,63.584,9.777,94.765.408a796.109,796.109,0,0,0,204.481-95.056C364.34,387.02,319.789,345.953,295.833,293.965Z" transform="translate(26.687 13.983)" fill="#d70060" opacity="0.75"/>
  <path id="Path_643" data-name="Path 643" d="M184.121.164A266.308,266.308,0,0,0,81.91,27.413,130.539,130.539,0,0,0,68.841,49.09c-12.429,26.535-13.069,60.949,6.224,82.728C101.7,161.924,150.2,154.678,185.141,174.09c45.551,25.31,55.3,85.953,77.353,133.858C286.511,359.936,331,401,383.078,422.6q30.3-19.677,58.781-42.068c24.577-19.35,48.613-40.823,62.843-69.052a108.461,108.461,0,0,0,6.264-15.206,163.834,163.834,0,0,1-100.329-4.633c-55.618-21.371-95.366-70.889-132.371-118.386-13.289-17.064-27.3-36.128-26.6-57.907.56-18.37,11.548-34.454,23.176-48.416,2.682-3.225,5.464-6.45,8.206-9.7a4.651,4.651,0,0,0-.16-.49C269.139,18,224.589-2.041,184.121.164Z" transform="translate(60.046 0)" fill="#f18d05" opacity="0.75"/>
  <path id="Path_644" data-name="Path 644" d="M155.753,86.191c-.7,21.779,13.309,40.823,26.6,57.907,37.005,47.416,76.753,96.934,132.371,118.386a163.835,163.835,0,0,0,100.329,4.633c8.226-25.126,7.505-53.621-7.065-75.2-22.355-33.169-66.866-39.292-105.973-44.17s-84.058-15.941-100.529-52.457c-9.426-20.9-6.845-45.517-14.35-67.215-2.742,3.245-5.524,6.47-8.206,9.7C167.3,51.737,156.273,67.882,155.753,86.191Z" transform="translate(155.94 29.236)" fill="#f2bc06" opacity="0.25"/>
</svg>
